<svg width="353" height="140" viewBox="0 0 353 140" xmlns="http://www.w3.org/2000/svg"><title>Artboard 2</title><path d="M0 53.896h19.008v-5.688l-5.472-1.224V17.392h.36l20.808 36.504H45.36V10.984l4.824-1.296V4h-18.36v5.688l5.472 1.368v23.976h-.36L19.008 4H0v5.688l5.4 1.296v35.928L0 48.208v5.688zm71.784.936c6.984 0 11.232-2.016 13.824-3.672v-5.832c-2.664.864-5.832 1.8-10.944 1.8-6.624 0-10.512-3.168-11.088-10.872h23.832c0-14.688-5.184-21.096-16.704-21.096-10.944 0-18.648 7.2-18.648 19.584 0 12.456 6.48 20.088 19.728 20.088zm-8.208-23.904c.504-6.912 3.024-9.288 6.84-9.288 3.672 0 5.904 2.304 5.904 8.856l-12.744.432zm37.944 22.968h9.432l7.344-23.4h.216l6.912 23.4h9.36l9.576-31.608 3.24-1.008v-5.328h-14.904v5.328l3.528.864-4.896 18.288h-.288l-7.488-24.48h-7.632l-7.488 24.48h-.288l-4.968-18.288 3.6-.864v-5.328h-18v5.328l3.24 1.008 9.504 31.608zm71.64 0h23.328v-5.76l-5.472-1.224V33.016L203.4 10.984l4.032-1.296V4h-16.416v5.688l4.248 1.224-8.136 15.336h-.288l-8.568-15.336 4.176-1.224V4h-21.096v5.688l4.032 1.296 13.32 22.248v13.68l-5.544 1.224v5.76zm50.112.936c6.984 0 11.232-2.016 13.824-3.672v-5.832c-2.664.864-5.832 1.8-10.944 1.8-6.624 0-10.512-3.168-11.088-10.872h23.832c0-14.688-5.184-21.096-16.704-21.096-10.944 0-18.648 7.2-18.648 19.584 0 12.456 6.48 20.088 19.728 20.088zm-8.208-23.904c.504-6.912 3.024-9.288 6.84-9.288 3.672 0 5.904 2.304 5.904 8.856l-12.744.432zm37.656 23.904c4.824 0 8.28-2.016 10.224-4.392h.36c.936 3.024 3.24 4.32 7.056 4.32 2.952 0 5.904-.936 7.128-1.656v-5.04h-1.368c-1.728 0-2.88-.504-2.88-2.448V27.184c0-8.136-4.176-12.024-13.392-12.024-5.904 0-11.592 1.368-14.976 2.664v6.192c2.448-.432 6.408-.72 9.72-.72 6.192 0 7.488 1.656 7.488 6.048v2.52l-7.56 1.512c-8.064 1.512-13.176 3.888-13.176 11.088 0 6.192 4.536 10.368 11.376 10.368zm4.608-6.624c-3.384 0-4.824-1.8-4.824-5.256 0-3.312 1.368-5.04 4.968-5.328l4.608-.288v9c-.936.864-2.736 1.872-4.752 1.872zm21.744 5.688h21.24V48.64l-5.544-1.08V26.752c2.232-1.152 4.824-1.728 8.352-1.728 1.008 0 2.304.072 3.168.288V15.52c-.432-.144-1.296-.288-1.944-.288-4.32 0-7.632 2.736-9.648 5.904h-.432v-5.4l-1.008-.504-14.328 1.656v5.472l4.68 1.152V47.56l-4.536 1.08v5.256zm31.464-34.2h7.128C320.04 15.016 321.48 9.688 322.2 4h-10.656c0 6.048-.432 10.728-1.008 15.696zm25.488 35.136c11.808 0 16.992-5.328 16.992-12.888 0-5.688-2.88-9.288-10.296-11.16l-4.392-1.152c-4.392-1.08-5.832-2.16-5.832-4.536 0-2.664 2.448-3.744 5.616-3.744 2.376 0 3.816.504 4.824 1.08l1.152 4.392h6.48v-9.792c-2.88-1.152-7.416-1.944-11.952-1.944-10.944 0-15.984 5.256-15.984 12.24 0 6.408 3.672 9.648 10.368 11.304l4.104 1.08c3.96 1.152 5.328 2.016 5.328 4.608 0 2.736-2.304 4.104-5.904 4.104-2.592 0-4.608-.648-5.688-1.296l-1.584-4.896h-6.696l.648 10.368c3.672 1.368 8.64 2.232 12.816 2.232zM0 125.896h23.4c15.192 0 24.48-8.352 24.48-25.92C47.88 83.344 39.168 76 22.968 76H.072v5.688L5.4 82.984v35.928L0 120.136v5.76zm17.712-7.056V83.056h3.96c8.496 0 13.32 2.304 13.32 17.928 0 14.04-4.176 17.856-12.24 17.856h-5.04zm43.416 7.992c4.824 0 8.28-2.016 10.224-4.392h.36c.936 3.024 3.24 4.32 7.056 4.32 2.952 0 5.904-.936 7.128-1.656v-5.04h-1.368c-1.728 0-2.88-.504-2.88-2.448V99.184c0-8.136-4.176-12.024-13.392-12.024-5.904 0-11.592 1.368-14.976 2.664v6.192c2.448-.432 6.408-.72 9.72-.72 6.192 0 7.488 1.656 7.488 6.048v2.52l-7.56 1.512c-8.064 1.512-13.176 3.888-13.176 11.088 0 6.192 4.536 10.368 11.376 10.368zm4.608-6.624c-3.384 0-4.824-1.8-4.824-5.256 0-3.312 1.368-5.04 4.968-5.328l4.608-.288v9c-.936.864-2.736 1.872-4.752 1.872zm30.6 20.232c7.128 0 10.368-3.384 12.888-10.08l13.752-36.072 3.384-1.008v-5.328h-15.696v5.328l3.888.864-6.408 19.368h-.288l-7.272-19.368 3.888-.864v-5.328H85.248v5.328l3.528 1.008 12.96 30.888-1.368 3.528c-1.296 3.168-3.456 4.176-6.84 4.176-1.224 0-2.232-.144-3.888-.504v6.84c1.44.648 4.32 1.224 6.696 1.224z" fill="#FFF" fill-rule="evenodd"/></svg>