<svg width="255" height="171" viewBox="0 0 255 171" xmlns="http://www.w3.org/2000/svg" xmlns:xlink="http://www.w3.org/1999/xlink"><title>Group</title><defs><path id="a" d="M57.634.252H.252v57.373h57.382V.252z"/></defs><g fill="none" fill-rule="evenodd"><path d="M31.098 165.794c6.914 3.228 14.628 5.03 22.762 5.03 29.748 0 53.86-24.11 53.86-53.852 0-29.742-24.112-53.852-53.86-53.852C24.115 63.12 0 87.23 0 116.972c0 12.696 4.394 24.366 11.745 33.573l-.058 18.277c-.004 1.44 1.113 2.28 2.495 1.88l16.916-4.908z" fill="#9BD5E0"/><path d="M83.195 91.015c0 2.88-2.336 5.216-5.217 5.216-2.88 0-5.216-2.334-5.216-5.215 0-2.88 2.335-5.216 5.216-5.216 2.88 0 5.217 2.334 5.217 5.215M48.766 91.015c0 2.88-2.336 5.216-5.217 5.216-2.882 0-5.217-2.334-5.217-5.215 0-2.88 2.335-5.216 5.216-5.216 2.88 0 5.216 2.334 5.216 5.215M66.502 120.223c-17.565 0-27.587-7.636-28.004-7.96-1.365-1.062-1.61-3.028-.55-4.392 1.06-1.36 3.02-1.608 4.383-.556.138.104 8.924 6.65 24.172 6.65 1.728 0 3.13 1.402 3.13 3.13s-1.402 3.13-3.13 3.13" fill="#767676"/><path d="M147.628 9.66c-1.713 0-3.11-1.382-3.13-3.1-.017-1.727 1.37-3.142 3.098-3.16l.27-.003h.023c1.717 0 3.116 1.386 3.13 3.107.012 1.728-1.38 3.14-3.108 3.152l-.25.003h-.034m31.67 2.668c-.192 0-.387-.017-.582-.054l-.246-.046c-1.7-.314-2.824-1.946-2.51-3.645.313-1.7 1.946-2.824 3.646-2.51l.267.05c1.7.32 2.817 1.955 2.497 3.654-.283 1.503-1.596 2.55-3.072 2.55m-63.012.66c-1.448 0-2.75-1.01-3.06-2.483-.357-1.69.725-3.35 2.416-3.708l.26-.055c1.693-.354 3.35.73 3.705 2.422.355 1.692-.73 3.35-2.42 3.705l-.252.053c-.218.046-.435.068-.65.068m92.916 9.09c-.482 0-.973-.114-1.433-.35l-.224-.117c-1.538-.788-2.145-2.674-1.356-4.212.79-1.537 2.676-2.144 4.214-1.355l.24.123c1.536.793 2.138 2.68 1.345 4.217-.556 1.076-1.65 1.694-2.784 1.694M86.73 23.692c-1.082 0-2.133-.56-2.713-1.564-.865-1.496-.353-3.41 1.144-4.275l.238-.137c1.5-.858 3.412-.34 4.27 1.16.86 1.5.34 3.413-1.16 4.272l-.215.124c-.493.284-1.032.42-1.563.42m143.26 20.69c-1.48 0-2.795-1.053-3.074-2.56l-.042-.218c-.335-1.696.768-3.342 2.463-3.677 1.696-.334 3.343.768 3.678 2.463.02.097.037.195.055.292.316 1.7-.807 3.333-2.507 3.648-.192.035-.384.052-.574.052M68.587 47.724c-1.728 0-3.13-1.4-3.13-3.13 0-.102 0-.204.003-.306.026-1.728 1.452-3.114 3.176-3.083 1.728.025 3.11 1.446 3.084 3.175l-.002.215c0 1.728-1.4 3.13-3.13 3.13" fill="#46BCDF" opacity=".5"/><path d="M225.606 55.428c-14.604 0-26.484-11.88-26.484-26.48s11.88-26.48 26.484-26.48c14.603 0 26.484 11.88 26.484 26.48s-11.88 26.48-26.484 26.48" fill="#FFF"/><g transform="translate(196.663 .01)"><mask id="b" fill="#fff"><use xlink:href="#a"/></mask><path d="M22.053 52.214l-2.502-6.596 6.51-8.956h5.766l6.54 8.998-2.345 6.5c-2.24.683-4.616 1.052-7.077 1.052-2.393 0-4.705-.35-6.89-.998zM20.84 6.064l5.895 3.862V22.39l-3.464 2.386-11.78-3.827-1.92-6.62c2.842-3.757 6.75-6.662 11.27-8.267zm27.356 8.108l-1.85 6.792L34.72 24.74l-3.57-2.39V9.873l5.714-3.88c4.534 1.57 8.463 4.446 11.332 8.178zM15.95 43.065l-6.893-.22c-2.65-3.778-4.255-8.34-4.383-13.266l5.502-4.418 10.503 3.413 1.874 5.4-6.605 9.09zm25.957-.042L35.32 33.96l1.833-5.368 10.605-3.446 5.456 4.235c-.09 4.93-1.655 9.507-4.273 13.304l-7.033.34zM28.943.253C13.098.252.253 13.095.253 28.938c0 15.84 12.845 28.685 28.69 28.685s28.69-12.844 28.69-28.686C57.634 13.095 44.79.25 28.944.25z" fill="#005689" mask="url(#b)"/></g><path d="M204 116.255c0-23.29-14.128-42.89-33.855-51.418 6.746 4.072 10.818 10.818 10.946 20.363.255 16.8-13.363 26.473-33.09 26.473-4.964 0-8.527-.127-12.6-1.527-2.037 1.527-3.564 3.69-3.564 5.6 0 2.672 2.546 5.09 5.473 5.09h27.617c17.182 0 25.327 6.62 25.327 21.89 0 4.965-1.145 9.42-3.054 13.365 10.31-10.18 16.8-24.18 16.8-39.835zM124.582 65.22C105.618 74.38 92 93.472 92 116.254c0 15.4 6.364 28.89 16.164 39.072v-.763c0-9.8 9.672-13.746 18.454-15.4-8.273-1.91-12.218-7.637-12.218-13.746 0-8.018 8.91-15.018 13.236-17.945l-.382-.255c-7.38-4.963-12.727-11.71-12.727-21.89 0-8.655 3.818-15.528 10.055-20.11zm33.472 20.108c0-15.273-4.327-17.69-10.054-17.69-5.473 0-10.055 2.035-10.055 17.69 0 15.654 4.582 16.927 10.055 16.927s10.054-1.655 10.054-16.927zm.637 58.418h-20.745c-7.127 0-8.91 4.963-8.91 9.036 0 5.473 4.965 10.436 19.474 10.436 16.544 0 21-4.582 21-10.69 0-5.22-3.82-8.782-10.82-8.782z" fill="#005689"/></g></svg>