<?xml version="1.0" encoding="UTF-8" standalone="no"?>
<svg width="364px" height="355px" viewBox="0 0 364 355" version="1.1" xmlns="http://www.w3.org/2000/svg" xmlns:xlink="http://www.w3.org/1999/xlink">
    <!-- Generator: Sketch 3.8.3 (29802) - http://www.bohemiancoding.com/sketch -->
    <title>export</title>
    <desc>Created with Sketch.</desc>
    <defs>
        <ellipse id="path-1" cx="150" cy="149.969355" rx="150" ry="149.969355"></ellipse>
    </defs>
    <g id="In-article" stroke="none" stroke-width="1" fill="none" fill-rule="evenodd">
        <g id="export">
            <g id="artwork">
                <g id="card" transform="translate(0.707410, 0.000000)">
                    <g id="circle" transform="translate(0.000000, 55.000000)">
                        <mask id="mask-2" fill="white">
                            <use xlink:href="#path-1"></use>
                        </mask>
                        <g id="Mask"></g>
                        <ellipse id="Mask" fill="#240D12" mask="url(#mask-2)" cx="150" cy="149.969355" rx="150" ry="149.969355"></ellipse>
                        <g id="Illustration-in-article" mask="url(#mask-2)">
                            <g transform="translate(224.000000, 197.500000) scale(-1, 1) translate(-224.000000, -197.500000) translate(0.000000, -130.000000)">
                                <path d="M305.866304,132.515694 C305.866304,132.515694 317.215637,158.208419 308.864902,190.084629 C308.354551,192.031253 308.000462,193.90621 307.780311,195.7095 L307.775692,195.712212 L307.775692,195.739717 C307.361562,199.148342 307.421218,202.296256 307.801864,205.172611 L308.026249,290.011326 C308.026249,290.011326 247.023582,283.249084 216.988338,278.758871 L207.213163,313.574967 C207.213163,313.574967 303.751775,331.222034 328.163156,313.932914 C351.715871,297.252767 331.481974,212.896737 325.968572,191.759306 C328.899046,184.004189 340.340751,147.858965 305.866304,132.515694" id="Fill-1" fill="#FAD0AE"></path>
                                <path d="M320.970562,143.377083 C327.252569,159.084544 322.94692,183.74998 313.965366,193.894938 C319.478768,215.040118 350.78681,295.160449 327.23448,311.845629 C307.47437,325.844501 251.637559,315.285668 218.397421,278.500458 L207.691992,314.306011 C207.691992,314.306011 304.231373,331.958448 328.643909,314.664469 C352.195469,297.978514 331.961957,213.59272 326.449325,192.449091 C328.843277,186.108056 336.923442,160.793906 320.970562,143.377083" id="Fill-3" fill="#EC8062" opacity="0.4"></path>
                                <path d="M399.123008,385.23279 C342.023791,385.184156 271.666238,395.493967 228.543159,410.731337 C227.122183,407.845284 215.331777,386.76363 216.355173,381.704063 C225.966004,334.168535 238.703214,341.041486 222.014444,295.046061 C210.878719,264.357483 229.596959,227.554041 229.596959,227.554041 L239.590362,203.399128 L229.406059,194.955967 C228.774471,196.738472 204.713715,207.578635 174.359791,249.933782 C106.560533,344.536246 133.64221,475.804353 205.201358,493.949004 C215.318691,497.001805 227.149894,498.810557 240.567956,498.175217 C240.567956,498.175217 294.186705,497.417131 387.871434,436.951686 C382.909564,441.36935 372.482788,466.982149 372.635585,492.117478 C372.847269,527.097115 389.046856,571.27491 389.046856,571.27491 L378.130513,580.359201 C358.397729,600.239653 386.489715,614.21213 386.489715,614.21213 C386.489715,614.21213 408.132272,622.137678 440.296286,652.662595 C445.940932,658.018602 447.903819,649.817458 447.903819,649.817458 C447.903819,649.817458 434.837922,626.214512 421.028822,601.977383 C398.778155,562.923615 433.640561,443.623535 433.640561,443.623535 C449.823984,386.792193 399.123008,385.23279 399.123008,385.23279" id="Fill-7" fill="#FAD0AE"></path>
                                <path d="M234.279406,192.835659 C233.598939,194.627942 207.680753,204.890472 175.633743,247.717343 C156.5083,273.276404 145.293289,302.559423 139.207186,330.585591 L139.270307,330.563071 C162.759516,256.167788 223.956547,243.328268 226.753853,239.926968 C229.582719,220.433171 233.939557,225.404272 233.939557,225.404272 L244.658843,201.102449 L234.279406,192.835659 Z" id="Fill-9" fill="#EC8062" opacity="0.4"></path>
                                <path d="M299.356795,121.018086 C289.651667,103.444906 274.173729,79.0532182 261.469234,75.7004887 C241.315392,70.3825798 232.09098,99.1498501 200.903791,86.5864063 C169.715832,74.0225754 149.043557,112.965341 149.043557,112.965341 C149.043557,112.965341 111.715612,99.0546109 98.1928632,135.103808 L86.3335643,161.655025 C83.3892344,174.642787 107.262169,185.352163 107.375709,204.043049 C107.476162,220.438128 93.7625127,240.058951 105.251557,264.063875 C116.740602,288.068798 137.746183,266.832393 146.90863,278.435315 C165.627255,302.136711 167.684052,255.659984 218.432753,221.485759 C231.211145,212.881324 242.720973,204.945499 243.125482,202.579618 L310.695351,200.145598 C319.274705,166.902472 313.455709,139.977268 299.356795,121.018086" id="Fill-13" fill="#E9660B"></path>
                                <path d="M247.576462,181.332772 C242.047665,169.082826 231.976902,177.785656 227.413768,182.384217 C222.851019,186.982388 226.269135,200.61565 226.269135,200.61565 C224.339348,202.239085 217.084751,217.27948 216.597493,225.370887 C216.110235,233.461512 234.207665,250.617292 238.571816,255.63284 C242.937507,260.647606 250.151307,257.658424 251.227816,254.903504 C252.302785,252.147804 258.064819,252.174744 259.10284,252.029892 C260.14163,251.884649 260.651981,249.519775 260.651981,249.519775 L262.070263,250.259262 C263.063637,250.432616 267.833452,250.286593 267.203788,246.415415 C266.574125,242.543456 271.07106,242.813638 271.07106,242.813638 C278.36607,248.667452 279.560737,240.375362 281.802276,234.22872 C284.043816,228.082859 288.756283,225.963569 293.66196,224.860977 C298.568792,223.757213 300.250331,219.147329 300.250331,219.147329 C300.250331,219.147329 309.334647,200.792127 310.843376,199.74771 C310.843376,199.74771 308.723843,200.698423 303.504104,194.551 C298.283981,188.405529 293.977946,197.02871 285.753836,195.263156 C277.527417,193.496821 266.168085,190.125401 256.882092,194.550999 C256.850199,194.625316 253.105259,193.582717 247.576462,181.332772 Z" id="Fill-15" fill="#FAD0AE"></path>
                                <path d="M281.120847,228.531279 C281.120847,228.531279 274.646015,225.088728 273.649946,214.420215 L270.368077,215.257899 C270.368077,215.257899 272.618084,229.323262 281.120847,228.531279" id="Fill-17" fill="#240D12"></path>
                                <path d="M335.069053,373.857174 L273.813135,375.869474 C273.813135,375.869474 237.533603,308.333849 221.210084,285.738031 C216.43796,279.133351 207.875156,277.023118 202.078098,279.08827 C184.829713,287.071403 197.659678,312.309871 197.659678,312.309871 C197.659678,312.309871 228.75796,367.935308 251.121012,393.685594 C256.002056,403.031246 267.860201,403.446298 271.084338,402.536915 C276.074689,401.129705 385.796201,387.126383 385.796201,387.126383 C359.870318,363.157165 335.069053,373.857174 335.069053,373.857174" id="Fill-19" fill="#FAD0AE"></path>
                                <path d="M223.438153,354.841896 C223.438153,354.841896 207.835052,381.940313 229.347596,410.726547 C229.347596,410.726547 212.954414,422.035349 209.468173,449.031881 C208.956668,452.986878 206.564641,419.380843 211.44761,392.305964 C217.346276,359.605967 184.552599,291.516947 184.552599,291.516947" id="Fill-24" fill="#EC8062" opacity="0.4"></path>
                                <path d="M155.417397,0.00134757168 C151.10251,3.22937885 219.858579,89.2387638 219.858579,89.2387638 C219.858579,89.2387638 211.328874,93.3432135 211.618689,96.3941749 C211.908888,99.4451362 210.733465,106.923622 210.733465,106.923622 C210.733465,106.923622 210.534098,110.958176 210.531788,113.418516 C210.529864,115.878856 208.38108,118.928264 205.164641,117.35172 C201.946661,115.774012 197.752242,114.687905 195.993726,117.540051 C194.237135,120.393362 193.45429,122.262693 193.45429,122.262693 C193.45429,122.262693 189.059733,122.797785 186.398675,120.900885 C186.398675,120.900885 187.004476,126.730602 186.135032,127.17716 C185.199775,127.658277 179.962331,125.013489 179.207582,129.434413 C178.725328,132.262872 172.964448,140.482256 163.987513,133.654579 C154.773108,126.647115 149.513342,113.836727 149.513342,113.836727 L155.417397,0.00134757168 Z" id="Fill-27" fill="#240D12"></path>
                                <path d="M158.53931,174.986585 C156.818513,175.785276 138.076025,179.453742 135.593935,179.465002 C133.791929,179.47238 131.813262,178.272596 131.165509,177.680469 C130.517372,177.087566 131.616973,176.432927 131.616973,176.432927 C135.576616,178.599139 156.488671,174.711295 158.252959,171.032733 C160.034183,167.320392 154.584671,168.281772 154.584671,168.281772 C154.584671,168.281772 140.687434,172.168451 134.498568,170.642512 C130.401138,169.631432 121.531585,164.583797 120.728726,163.227536 C119.925867,161.870887 130.070142,161.585501 134.695241,167.1379 C137.033386,169.942832 139.040533,165.101373 136.93832,162.987191 C131.045042,157.06282 122.429894,156.598437 119.597179,156.476518 C115.192231,156.28859 108.048863,163.099015 102.288368,166.506169 C98.6408632,168.663451 95.8551038,168.957767 94.3267464,168.891759 L94.3787052,168.799737 C94.3787052,168.799737 38.8409457,116.734931 28.1716948,116.972946 C28.1716948,116.972946 55.2857017,108.907601 58.2562034,104.230385 C61.22709,99.5547213 61.028877,84.1439021 61.028877,84.1439021 L51.7694405,64.7244838 C51.7694405,64.7244838 -16.0486763,106.489396 3.94890447,129.686387 C13.316877,140.552393 53.9544027,170.807531 82.8211519,184.570491 C82.9139079,184.764631 107.002375,195.68189 107.157482,195.724601 C109.116904,196.270134 131.88331,201.10305 131.88331,201.10305 C131.88331,201.10305 142.173839,203.348472 146.929798,201.769727 C149.378788,200.955892 149.411118,197.756856 145.376038,197.749091 C142.622609,197.743655 134.258788,196.071723 130.917647,195.21246 C125.041303,193.700887 125.391544,190.047564 128.590664,191.933438 C131.78863,193.820477 153.268382,193.390652 156.949372,189.974956 C160.631131,186.558871 156.333179,185.313659 154.068932,186.13254 C153.51509,186.333281 134.034403,187.22283 134.034403,187.22283 C134.034403,187.22283 129.743764,185.794349 132.895929,185.381219 C136.481853,184.911013 155.135434,181.807493 160.000698,179.889392 C164.864423,177.969737 160.753908,173.960362 158.53931,174.986585" id="Fill-29" fill="#240D12"></path>
                                <path d="M275.57881,393.758416 C272.318493,394.538653 259.230658,397.118068 254.760665,387.388654 C235.583648,368.763901 228.891744,360.526478 228.891744,360.526478 C228.891744,360.526478 228.267085,365.380497 249.489737,392.5938 C253.960115,402.324797 265.789009,403.281983 269.04971,402.501746 C274.095483,401.294377 386.359126,387.077905 386.359126,387.077905 C383.697682,384.341334 381.007373,382.06673 378.326686,380.186006 C347.780707,384.074526 279.489188,392.823002 275.57881,393.758416" id="Fill-21" fill="#EC8062" opacity="0.4"></path>
                            </g>
                        </g>
                    </g>
                    <path d="M157.447218,119.911508 C158.641448,122.737081 159.382097,125.750595 159.401874,129.006272 C159.502327,145.401351 145.788678,165.022175 157.277723,189.027098 C168.766767,213.032021 189.772348,191.795616 198.934795,203.398538 C218.8977,174.34169 220.657427,158.64566 252.929957,139.280273 C266.159617,131.341711 266.089223,101.089056 266.493731,98.723175 L303.942172,86.618248 C307.501016,72.8285021 362.312319,84.4300919 362.312319,72.9562683 C362.312319,61.4824448 359.633433,57.0759385 351.38296,45.9813091 C341.677833,28.4081287 326.199894,4.01644134 313.4954,0.663711902 C297.897079,-3.45215083 288.845686,12.8496269 271.091811,14.6049064 C268.982606,15.7118275 263.409666,18.8815022 263.644854,21.357398 C263.935053,24.4083594 262.75963,31.8868454 262.75963,31.8868454 C262.75963,31.8868454 262.560263,35.9213992 262.557954,38.3817391 C262.556029,40.8420791 260.407246,43.8914872 257.190806,42.3149436 C253.972826,40.7372351 249.778407,39.6511285 248.019892,42.5032746 C246.263301,45.3565855 245.480455,47.2259158 245.480455,47.2259158 C245.480455,47.2259158 241.085899,47.7610087 238.42484,45.8641083 C238.42484,45.8641083 239.030641,51.6938248 238.161197,52.1403827 C237.22594,52.6215004 231.988496,49.9767126 231.233747,54.3976359 C230.751493,57.226095 224.990613,65.4454788 216.013679,58.6178024 C206.799273,51.6103379 201.539507,38.7999503 201.539507,38.7999503 L201.636794,36.9241684 C201.261778,37.5667668 201.069723,37.928564 201.069723,37.928564 C201.069723,37.928564 163.741778,24.0178341 150.219028,60.0670314 L138.422697,86.4772726 C143.281703,90.9172418 146.365173,93.8332665 146.352912,93.8549824 C147.881269,93.9209899 150.667028,93.626674 154.314534,91.4693923 C160.075028,88.0622384 167.218396,81.2518133 171.623345,81.4397407 C174.456059,81.5616605 183.071207,82.026043 188.964485,87.9504138 C191.066699,90.0645965 189.059551,94.9060554 186.721406,92.1011232 C182.096307,86.5487243 171.952032,86.8341098 172.754891,88.1907589 C173.55775,89.5470197 182.427303,94.5946551 186.524733,95.6057353 C192.713599,97.1316743 206.610836,93.2449951 206.610836,93.2449951 C206.610836,93.2449951 212.060348,92.2836147 210.279125,95.9959564 C208.514836,99.6745178 187.602781,103.562362 183.643138,101.39615 C183.643138,101.39615 182.543537,102.050789 183.191674,102.643692 C183.839427,103.235819 185.818094,104.435603 187.620101,104.428225 C190.10219,104.416965 208.844678,100.748499 210.565475,99.949808 C212.780073,98.9235849 216.890589,102.932961 212.026863,104.852615 C207.161599,106.770717 188.508018,109.874236 184.922094,110.344442 C181.769929,110.757572 186.060568,112.186053 186.060568,112.186053 C186.060568,112.186053 205.541255,111.296504 206.095097,111.095764 C208.359345,110.276882 212.657296,111.522095 208.975537,114.938179 C205.294547,118.353875 183.814795,118.783701 180.616829,116.896662 C177.417709,115.010787 177.067468,118.66411 182.943812,120.175683 C186.284953,121.034946 194.648774,122.706878 197.402204,122.712314 C201.437283,122.72008 201.404953,125.919116 198.955963,126.73295 C194.200004,128.311695 183.909475,126.066274 183.909475,126.066274 C183.909475,126.066274 161.14307,121.233357 159.183647,120.687824 C159.158672,120.680947 158.513163,120.392119 157.447218,119.911508 Z" id="Combined-Shape" fill="#E9660B" transform="translate(250.367508, 101.699269) scale(-1, 1) translate(-250.367508, -101.699269) "></path>
                </g>
                <g id="logo" transform="translate(30.707410, 249.000000)">
                    <path d="M0,10.0784592 C0,6.01502893 2.52706471,4.2324102 6.30716087,4.2324102 C7.7088029,4.2324102 9.08910071,4.43955411 9.78980759,4.6676464 L9.78980759,8.15053886 L7.30497477,8.15053886 L7.0077536,6.63701778 C6.81668286,6.57484118 6.64672806,6.49205048 6.13720607,6.49205048 C4.88428875,6.49205048 4.11989163,7.34190877 4.11989163,9.76746474 C4.11989163,12.3796619 5.26654439,13.1881806 7.19893849,13.1881806 C8.28201514,13.1881806 9.28017146,12.9600883 9.85361198,12.7322189 L9.85361198,14.7844924 C9.17379276,15.2614025 7.87841528,15.8003778 5.94590704,15.8003778 C1.93239411,15.8003778 0,13.6030255 0,10.0784592" id="Fill-53" fill="#CC8F79"></path>
                    <polygon id="Fill-55" fill="#CC8F79" points="10.7241595 13.6445769 11.9773051 13.354308 11.9773051 2.7399378 10.6180091 2.38726945 10.6180091 0.479851812 15.5237562 0.00305311621 15.8633234 0.168857383 15.8633234 13.354308 17.0740088 13.6445769 17.0740088 15.5310461 10.7241595 15.5310461"></polygon>
                    <path d="M24.9710746,10.0784592 C24.9710746,7.217667 24.249366,6.49205048 23.1872911,6.49205048 C22.1469029,6.49205048 21.4459677,7.13454201 21.4459677,9.93338044 C21.4459677,12.7945069 22.1680188,13.5201234 23.2510955,13.5201234 C24.2915978,13.5201234 24.9710746,12.7945069 24.9710746,10.0784592 M17.3473062,10.0784592 C17.3473062,6.26395818 19.9381753,4.2324102 23.2086353,4.2324102 C26.9887315,4.2324102 29.0909663,6.30540925 29.0909663,9.93338044 C29.0909663,13.7272673 26.4787529,15.8003778 23.2299796,15.8003778 C19.4286533,15.8003778 17.3473062,13.5823 17.3473062,10.0784592" id="Fill-57" fill="#CC8F79"></path>
                    <path d="M29.797403,15.1164129 L29.6063322,12.0895936 L32.0060164,12.0895936 L32.4307322,13.3128458 C32.7067233,13.4578131 33.2375895,13.6445658 33.9174087,13.6445658 C34.8305306,13.6445658 35.4037428,13.2920088 35.4037428,12.6699086 C35.4037428,12.048254 35.0429456,11.8408872 34.0446751,11.5920694 L32.8127596,11.3016891 C30.710639,10.8455045 29.5853304,9.89201851 29.5853304,7.9225357 C29.5853304,5.76630024 31.1351265,4.21155095 34.6392316,4.21155095 C36.0409877,4.21155095 37.4850899,4.43964325 38.3980976,4.81281428 L38.3980976,7.69455484 L36.0622178,7.69455484 L35.7862267,6.595433 C35.5310092,6.45068855 35.1276376,6.32600107 34.5119652,6.32600107 C33.683992,6.32600107 33.0467471,6.5748189 33.0467471,7.19680775 C33.0467471,7.77745697 33.4287744,8.0262748 34.5756555,8.2749812 L35.9558391,8.58597563 C38.2281428,9.08349986 39.1201487,10.2030129 39.1201487,11.8821154 C39.1201487,14.2247693 37.548666,15.8004669 33.7685699,15.8004669 C32.4943083,15.8004669 30.9445123,15.5723746 29.797403,15.1164129" id="Fill-59" fill="#CC8F79"></path>
                    <path d="M46.8421919,8.68931358 C46.8421919,6.96887146 46.2476354,6.45073312 45.4194339,6.45073312 C44.5486581,6.45073312 43.9117556,6.96887146 43.7628026,8.81422392 L46.8421919,8.68931358 Z M39.7281737,9.97496522 C39.7281737,6.3468826 42.0217075,4.23243249 45.46178,4.23243249 C48.965885,4.23243249 50.6220598,5.93237193 50.6220598,10.5760057 L43.7628026,10.5760057 C43.9752176,12.5250972 45.0370642,13.208817 46.8421919,13.208817 C48.3286401,13.208817 49.2844504,12.9393851 50.091536,12.6906787 L50.091536,14.7018354 C49.2844504,15.2406993 47.9466128,15.8004001 45.7803453,15.8004001 C41.8091784,15.8004001 39.7281737,13.7065641 39.7281737,9.97496522 L39.7281737,9.97496522 Z" id="Fill-61" fill="#CC8F79"></path>
                    <path d="M53.9639145,8.68931358 C53.9639145,6.96887146 53.3691298,6.45073312 52.5409283,6.45073312 C51.6701525,6.45073312 51.0330217,6.96887146 50.884297,8.81422392 L53.9639145,8.68931358 Z M46.849554,9.97496522 C46.849554,6.3468826 49.1432019,4.23243249 52.5831602,4.23243249 C56.0872652,4.23243249 57.74344,5.93237193 57.74344,10.5760057 L50.884297,10.5760057 C51.0967119,12.5250972 52.1585585,13.208817 53.9639145,13.208817 C55.4501345,13.208817 56.4059448,12.9393851 57.2129162,12.6906787 L57.2129162,14.7018354 C56.4059448,15.2406993 55.0681071,15.8004001 52.9018397,15.8004001 C48.9305586,15.8004001 46.849554,13.7065641 46.849554,9.97496522 L46.849554,9.97496522 Z" id="Fill-32" fill="#F8E4D5"></path>
                    <path d="M58.1021713,13.6445769 L59.3125143,13.354308 L59.3125143,6.98956356 L58.0381387,6.65795503 L58.0381387,4.72970043 L62.7105831,4.25312459 L63.0502645,4.39831475 L63.0502645,5.57978158 L63.177645,5.57978158 C64.2606075,4.77126292 65.34357,4.23239906 66.915281,4.23239906 C68.6566043,4.23239906 69.8669473,4.99935522 69.8669473,6.96894946 L69.8669473,13.354308 L70.9925983,13.6445769 L70.9925983,15.5310461 L65.0675789,15.5310461 L65.0675789,13.6445769 L65.9595848,13.4162618 L65.9595848,8.2958293 C65.9595848,7.40418566 65.534869,7.11391676 64.6432055,7.11391676 C64.0909951,7.11391676 63.666051,7.23838139 63.2202193,7.38346012 L63.2202193,13.4162618 L64.112111,13.6445769 L64.112111,15.5310461 L58.1021713,15.5310461 L58.1021713,13.6445769 Z" id="Fill-34" fill="#F8E4D5"></path>
                    <path d="M71.131096,10.0784592 C71.131096,6.01502893 73.6582749,4.2324102 77.4382569,4.2324102 C78.8394424,4.2324102 80.220425,4.43955411 80.9209036,4.6676464 L80.9209036,8.15053886 L78.4361849,8.15053886 L78.1390779,6.63701778 C77.9477789,6.57484118 77.7780524,6.49205048 77.2685304,6.49205048 C76.0153848,6.49205048 75.2508735,7.34190877 75.2508735,9.76746474 C75.2508735,12.3796619 76.3979828,13.1881806 78.3302628,13.1881806 C79.4134536,13.1881806 80.4112675,12.9600883 80.9842515,12.7322189 L80.9842515,14.7844924 C80.3051171,15.2614025 79.0095113,15.8003778 77.0772314,15.8003778 C73.0634901,15.8003778 71.131096,13.6030255 71.131096,10.0784592" id="Fill-36" fill="#F8E4D5"></path>
                    <path d="M89.2934434,10.0784592 C89.2934434,7.217667 88.5716206,6.49205048 87.5096599,6.49205048 C86.4690434,6.49205048 85.7681082,7.13454201 85.7681082,9.93338044 C85.7681082,12.7945069 86.4902735,13.5201234 87.5734642,13.5201234 C88.6138524,13.5201234 89.2934434,12.7945069 89.2934434,10.0784592 M81.669675,10.0784592 C81.669675,6.26395818 84.2606582,4.2324102 87.5308899,4.2324102 C91.3109861,4.2324102 93.4131067,6.30540925 93.4131067,9.93338044 C93.4131067,13.7272673 90.80135,15.8003778 87.55212,15.8003778 C83.7506796,15.8003778 81.669675,13.5823 81.669675,10.0784592" id="Fill-38" fill="#F8E4D5"></path>
                    <path d="M94.7486502,12.7115825 L94.7486502,6.94821278 L93.5597655,6.595433 L93.5597655,4.68834965 L98.2949871,4.25311345 L98.6353533,4.41891771 L98.6353533,11.6127949 C98.6353533,12.5250527 98.9324603,12.9187264 99.9091583,12.9187264 C100.610093,12.9187264 101.034467,12.7528107 101.417179,12.607732 L101.417179,6.94821278 L100.291642,6.595433 L100.291642,4.68834965 L104.942172,4.25311345 L105.303083,4.41891771 L105.303083,13.022354 L106.513883,13.3542969 L106.513883,15.2406547 L101.905585,15.7384018 L101.565675,15.5929888 L101.565675,14.3907964 L101.438295,14.3907964 C100.673555,15.1371384 99.5905929,15.7797414 98.0191102,15.7797414 C95.6833445,15.7797414 94.7486502,14.6396142 94.7486502,12.7115825" id="Fill-40" fill="#F8E4D5"></path>
                    <path d="M107.151253,13.6445769 L108.361596,13.354308 L108.361596,6.98956356 L107.087791,6.65795503 L107.087791,4.72970043 L111.759665,4.25312459 L112.099118,4.39831475 L112.099118,5.57978158 L112.226955,5.57978158 C113.309918,4.77126292 114.39288,4.23239906 115.964135,4.23239906 C117.705686,4.23239906 118.915915,4.99935522 118.915915,6.96894946 L118.915915,13.354308 L120.041338,13.6445769 L120.041338,15.5310461 L114.116889,15.5310461 L114.116889,13.6445769 L115.008667,13.4162618 L115.008667,8.2958293 C115.008667,7.40418566 114.583723,7.11391676 113.692059,7.11391676 C113.139849,7.11391676 112.71479,7.23838139 112.269187,7.38346012 L112.269187,13.4162618 L113.16085,13.6445769 L113.16085,15.5310461 L107.151253,15.5310461 L107.151253,13.6445769 Z" id="Fill-42" fill="#F8E4D5"></path>
                    <path d="M121.193743,12.6906898 L121.193743,6.7201762 L119.983628,6.7201762 L119.983628,4.99939979 L121.533995,4.43958753 L122.022059,1.86872997 L125.08056,1.86872997 L125.08056,4.46031307 L127.373866,4.46031307 L127.373866,6.7201762 L125.08056,6.7201762 L125.08056,12.0688124 C125.08056,13.0432467 125.52605,13.333627 126.46063,13.333627 C126.821655,13.333627 127.204139,13.271339 127.501361,13.188214 L127.501361,15.1578083 C126.991724,15.4688027 125.99334,15.7590716 124.761881,15.7590716 C122.468347,15.7590716 121.193743,15.0332322 121.193743,12.6906898" id="Fill-44" fill="#F8E4D5"></path>
                    <path d="M134.859799,8.68931358 C134.859799,6.96887146 134.265356,6.45073312 133.437155,6.45073312 C132.566379,6.45073312 131.92902,6.96887146 131.780752,8.81422392 L134.859799,8.68931358 Z M127.746009,9.97496522 C127.746009,6.3468826 130.0392,4.23243249 133.479501,4.23243249 C136.983378,4.23243249 138.639781,5.93237193 138.639781,10.5760057 L131.780752,10.5760057 C131.993281,12.5250972 133.055013,13.208817 134.859799,13.208817 C136.346475,13.208817 137.301943,12.9393851 138.109143,12.6906787 L138.109143,14.7018354 C137.301943,15.2406993 135.964219,15.8004001 133.797838,15.8004001 C129.827013,15.8004001 127.746009,13.7065641 127.746009,9.97496522 L127.746009,9.97496522 Z" id="Fill-46" fill="#F8E4D5"></path>
                    <path d="M139.341035,13.6445769 L140.551493,13.354308 L140.551493,6.98956356 L139.277117,6.65795503 L139.277117,4.72970043 L143.949105,4.25312459 L144.289357,4.39831475 L144.289357,6.05658028 L144.416623,6.05658028 C145.010837,5.06164325 145.988106,4.2737387 147.283483,4.2737387 C147.47444,4.2737387 147.708085,4.29468708 147.856924,4.33602672 L147.856924,7.69456598 C147.602163,7.6320551 147.219451,7.59071546 146.858653,7.59071546 C145.817923,7.59071546 145.096442,7.71529151 144.458969,8.00544898 L144.458969,13.354308 L146.030338,13.6445769 L146.030338,15.5310461 L139.341035,15.5310461 L139.341035,13.6445769 Z" id="Fill-48" fill="#F8E4D5"></path>
                    <path d="M148.875979,15.1164129 L148.685137,12.0895936 L151.084821,12.0895936 L151.509194,13.3128458 C151.785414,13.4578131 152.316394,13.6445658 152.995985,13.6445658 C153.909221,13.6445658 154.482319,13.2920088 154.482319,12.6699086 C154.482319,12.048254 154.121636,11.8408872 153.123251,11.5920694 L151.891907,11.3016891 C149.789329,10.8455045 148.664021,9.89201851 148.664021,7.9225357 C148.664021,5.76630024 150.213817,4.21155095 153.717922,4.21155095 C155.119222,4.21155095 156.56378,4.43964325 157.476788,4.81281428 L157.476788,7.69455484 L155.140452,7.69455484 L154.864461,6.595433 C154.610042,6.45068855 154.206328,6.32600107 153.590656,6.32600107 C152.76234,6.32600107 152.124981,6.5748189 152.124981,7.19680775 C152.124981,7.77745697 152.507579,8.0262748 153.654003,8.2749812 L155.034644,8.58597563 C157.306719,9.08349986 158.198953,10.2030129 158.198953,11.8821154 C158.198953,14.2247693 156.627242,15.8004669 152.847374,15.8004669 C151.572999,15.8004669 150.022974,15.5723746 148.875979,15.1164129" id="Fill-50" fill="#F8E4D5"></path>
                </g>
            </g>
        </g>
    </g>
</svg>
